<mxfile host="app.diagrams.net" modified="2022-07-05T03:24:23.657Z" agent="5.0 (X11; Linux x86_64) AppleWebKit/537.36 (KHTML, like Gecko) Chrome/101.0.0.0 Safari/537.36" etag="xwPfQkCGw5pTJ8iYxTlF" version="20.0.4" type="github">
  <diagram id="h0UbLLDwKzwc2ggPvic3" name="nvidia">
    <mxGraphModel dx="934" dy="513" grid="1" gridSize="10" guides="1" tooltips="1" connect="1" arrows="1" fold="1" page="1" pageScale="1" pageWidth="827" pageHeight="1169" math="0" shadow="0">
      <root>
        <mxCell id="0" />
        <mxCell id="1" parent="0" />
        <mxCell id="C5bBJ59nCPVQjy3G_bLI-1" value="createVideoEncoder&lt;br&gt;创建Video Encoder" style="rounded=1;whiteSpace=wrap;html=1;" vertex="1" parent="1">
          <mxGeometry x="280" y="40" width="240" height="40" as="geometry" />
        </mxCell>
      </root>
    </mxGraphModel>
  </diagram>
</mxfile>
